<svg width="7" height="11" viewBox="0 0 7 11" fill="none" xmlns="http://www.w3.org/2000/svg">
<path fill-rule="evenodd" clip-rule="evenodd" d="M0.584817 0.678689C0.651582 0.611754 0.730898 0.558649 0.818219 0.522414C0.90554 0.48618 0.999151 0.467529 1.09369 0.467529C1.18823 0.467529 1.28184 0.48618 1.36916 0.522414C1.45649 0.558649 1.5358 0.611754 1.60257 0.678689L5.91507 4.99119C5.982 5.05796 6.03511 5.13727 6.07134 5.22459C6.10758 5.31191 6.12623 5.40552 6.12623 5.50007C6.12623 5.59461 6.10758 5.68822 6.07134 5.77554C6.03511 5.86286 5.982 5.94217 5.91507 6.00894L1.60257 10.3214C1.46761 10.4564 1.28456 10.5322 1.09369 10.5322C0.902827 10.5322 0.719779 10.4564 0.584817 10.3214C0.449855 10.1865 0.374034 10.0034 0.374034 9.81257C0.374034 9.6217 0.449855 9.43865 0.584817 9.30369L4.38988 5.50007L0.584817 1.69644C0.517882 1.62967 0.464777 1.55036 0.428543 1.46304C0.392309 1.37572 0.373657 1.2821 0.373657 1.18756C0.373657 1.09302 0.392309 0.999412 0.428543 0.912091C0.464777 0.824769 0.517882 0.745454 0.584817 0.678689Z" fill="#A89365"/>
</svg>
