<svg width="20.000000000000004" height="20.000000000000004" xmlns="http://www.w3.org/2000/svg">
 <!-- Created with SVG Editor - http://github.com/mzalive/SVG Editor/ -->

 <g>
  <title>background</title>
  <rect fill="#fff" id="canvas_background" height="22" width="22" y="-1" x="-1"/>
  <g display="none" overflow="visible" y="0" x="0" height="100%" width="100%" id="canvasGrid">
   <rect fill="url(#gridpattern)" stroke-width="0" y="0" x="0" height="100%" width="100%"/>
  </g>
 </g>
 <g>
  <title>Layer 1</title>
  <!-- Created with SVG Editor - http://github.com/mzalive/SVG Editor/ -->
  <g id="svg_19">
   <g transform="matrix(0.0553228, 0, 0, 0.0519477, -37.6443, -35.3255)" id="svg_16">
    <title>background</title>
    <rect x="580.281196" y="668.996399" width="582" height="402" id="svg_14" fill="#fff"/>
    <g id="svg_13" display="none">
     <rect id="svg_17" width="20" height="20" x="581.281196" y="669.996399" stroke-width="0" fill="url(#gridpattern)"/>
    </g>
   </g>
   <g transform="matrix(0.0553228, 0, 0, 0.0519477, -37.6443, -35.3255)" id="svg_18">
    <title>Layer 1</title>
    <g id="svg_11">
     <path fill-rule="evenodd" clip-rule="evenodd" d="m777.054504,869.996399c0,-1.411987 0.712158,-2.766235 1.979614,-3.764648c1.267578,-0.998474 2.986694,-1.559448 4.779236,-1.559448l141.936096,0c1.792358,0 3.511353,0.560974 4.778931,1.559448c1.267639,0.998413 1.979492,2.352661 1.979492,3.764648c0,1.411987 -0.711853,2.766235 -1.979492,3.764648c-1.267578,0.998535 -2.986572,1.559448 -4.778931,1.559448l-141.936096,0c-1.792542,0 -3.511658,-0.560913 -4.779236,-1.559448c-1.267456,-0.998413 -1.979614,-2.352661 -1.979614,-3.764648z" fill="#A89365" id="svg_12" stroke-width="0"/>
    </g>
    <g id="svg_9">
     <path fill-rule="evenodd" clip-rule="evenodd" d="m897.022278,824.97052c0.507507,-0.625183 1.110474,-1.121033 1.77417,-1.459534c0.663818,-0.338379 1.375366,-0.512512 2.093994,-0.512512c0.718628,0 1.430237,0.174133 2.093994,0.512512c0.663818,0.338501 1.266724,0.834351 1.774292,1.459534l32.781372,40.275269c0.508789,0.623596 0.912476,1.364258 1.187866,2.179749c0.275513,0.815552 0.417236,1.689758 0.417236,2.572754c0,0.882935 -0.141724,1.757202 -0.417236,2.572693c-0.275391,0.815491 -0.679077,1.556213 -1.187866,2.179749l-32.781372,40.274902c-1.025879,1.260803 -2.417358,1.968689 -3.868286,1.968689c-1.450806,0 -2.842285,-0.707886 -3.868164,-1.968689c-1.026001,-1.259888 -1.602295,-2.969849 -1.602295,-4.752075c0,-1.782593 0.576294,-3.492065 1.602295,-4.752563l28.924072,-35.522705l-28.924072,-35.522827c-0.508789,-0.623535 -0.912476,-1.364258 -1.187988,-2.179749c-0.27533,-0.815491 -0.417114,-1.689819 -0.417114,-2.572754c0,-0.882935 0.141785,-1.757141 0.417114,-2.572693c0.275513,-0.815491 0.679199,-1.556274 1.187988,-2.179749z" fill="#A89365" id="svg_10"/>
    </g>
   </g>
  </g>
 </g>
</svg>