<svg width="580" height="400" xmlns="http://www.w3.org/2000/svg">
 <!-- Created with SVG Editor - http://github.com/mzalive/SVG Editor/ -->

 <g>
  <title>background</title>
  <rect fill="#fff" id="canvas_background" height="402" width="582" y="-1" x="-1"/>
  <g display="none" overflow="visible" y="0" x="0" height="100%" width="100%" id="canvasGrid">
   <rect fill="url(#gridpattern)" stroke-width="0" y="0" x="0" height="100%" width="100%"/>
  </g>
 </g>
 <g>
  <title>Layer 1</title>
  <g id="svg_5">
   <path stroke-width="0" id="svg_4" fill="#A89365" d="m195.773315,200c0,-1.412003 0.712128,-2.76622 1.979645,-3.764664c1.267517,-0.998444 2.986679,-1.559418 4.779205,-1.559418l141.936127,0c1.792328,0 3.511322,0.560974 4.778931,1.559418c1.267609,0.998444 1.979462,2.352661 1.979462,3.764664c0,1.412003 -0.711853,2.76622 -1.979462,3.764664c-1.267609,0.99852 -2.986603,1.559418 -4.778931,1.559418l-141.936127,0c-1.792526,0 -3.511688,-0.560898 -4.779205,-1.559418c-1.267517,-0.998444 -1.979645,-2.352661 -1.979645,-3.764664z" clip-rule="evenodd" fill-rule="evenodd"/>
  </g>
  <g id="svg_10">
   <path id="svg_9" fill="#A89365" d="m315.741119,154.974106c0.507477,-0.625153 1.110413,-1.121048 1.77417,-1.459503c0.663757,-0.338379 1.375336,-0.512543 2.093994,-0.512543c0.718628,0 1.430206,0.174164 2.093964,0.512543c0.663849,0.338455 1.266724,0.834351 1.774261,1.459503l32.781372,40.275269c0.508789,0.623611 0.912476,1.364273 1.187897,2.179794c0.275482,0.815491 0.417236,1.689713 0.417236,2.572754c0,0.882904 -0.141754,1.757141 -0.417236,2.572662c-0.275421,0.815491 -0.679108,1.556183 -1.187897,2.179764l-32.781372,40.274887c-1.025879,1.260788 -2.417328,1.968689 -3.868225,1.968689c-1.450806,0 -2.842285,-0.707901 -3.868164,-1.968689c-1.026001,-1.259888 -1.602325,-2.969864 -1.602325,-4.75206c0,-1.782578 0.576324,-3.492111 1.602325,-4.752548l28.924072,-35.522705l-28.924072,-35.522827c-0.50885,-0.623596 -0.912476,-1.364273 -1.187988,-2.179779c-0.27536,-0.815506 -0.417145,-1.689835 -0.417145,-2.572769c0,-0.882904 0.141785,-1.757156 0.417145,-2.572647c0.275513,-0.815506 0.679138,-1.55629 1.187988,-2.179794z" clip-rule="evenodd" fill-rule="evenodd"/>
  </g>
 </g>
</svg>